<svg xmlns="http://www.w3.org/2000/svg" width="840" height="816" viewBox="0 0 840 816" version="1.1"><path d="M -0 408.001 C -0 816.002, 0 816.002, 420.250 815.751 C 840.500 815.500, 840.500 815.500, 840.751 407.750 C 841.002 0, 841.002 -0, 420.501 -0 C 0 0, 0 0, -0 408.001 M 0.495 408.500 C 0.495 632.900, 0.610 724.551, 0.750 612.168 C 0.890 499.786, 0.890 316.186, 0.750 204.168 C 0.610 92.151, 0.495 184.100, 0.495 408.500 M 670 214.069 C 660.375 216.200, 636.750 221.123, 617.500 225.010 C 567.550 235.094, 572.674 233.633, 574.752 237.193 C 575.713 238.840, 582.013 245.367, 588.750 251.698 C 595.487 258.028, 601 263.822, 601 264.574 C 601 266.008, 595.508 273.007, 575.557 296.999 C 563.496 311.503, 519.133 356.880, 505 369.169 C 500.875 372.756, 491.200 380.571, 483.500 386.536 C 437.342 422.295, 393.051 444.764, 346.743 455.915 C 315.270 463.494, 274.273 464.091, 243.631 457.417 C 221.423 452.579, 189.712 439.837, 170.500 428.030 C 155.408 418.755, 156.227 419.154, 158.500 422.191 C 160.641 425.052, 178.008 439.402, 188.888 447.300 C 227.402 475.259, 276.093 488.846, 324.457 485.130 C 378.561 480.973, 430.432 461.931, 493 423.257 C 531.705 399.334, 578.716 361.685, 619.126 322.250 C 628.847 312.762, 637.056 305, 637.368 305 C 637.888 305, 641.760 308.280, 661.936 325.815 C 665.933 329.289, 669.439 331.894, 669.728 331.605 C 670.017 331.316, 671.750 322.399, 673.579 311.790 C 677.630 288.297, 687.841 232.254, 691.625 212.750 C 692.319 209.174, 692.030 209.192, 670 214.069 M 376 290.795 C 373.660 291.071, 372.914 292.861, 364.338 318.795 C 330.042 422.506, 322 446.941, 322 447.438 C 322 450.842, 371.345 437.966, 385.002 430.999 C 389.114 428.901, 388.396 430.430, 396.475 406.568 C 398.139 401.655, 399.950 397.500, 400.500 397.335 C 401.050 397.169, 403.049 402.003, 404.941 408.076 C 406.834 414.150, 408.723 419.329, 409.140 419.586 C 410.714 420.559, 453.603 394.955, 460.228 389.088 C 461.057 388.354, 429.798 293.398, 428.202 291.802 C 427.256 290.856, 382.754 289.998, 376 290.795 M 182 292.267 C 182 293.004, 183.530 298.083, 185.400 303.554 C 193.330 326.748, 225.433 421.361, 228.644 431 C 230.567 436.775, 232.507 441.875, 232.953 442.332 C 235.414 444.856, 264.962 449.614, 284.250 450.593 C 297.805 451.281, 298 451.261, 298 449.174 C 298 448.010, 292.357 428.707, 285.459 406.279 C 278.562 383.851, 271.617 361.225, 270.027 356 C 268.437 350.775, 263.505 334.800, 259.066 320.500 C 254.628 306.200, 250.998 293.986, 250.998 293.358 C 251.001 291.427, 247.564 291.213, 214.250 291.068 C 187.897 290.953, 182 291.173, 182 292.267 M 588 367.138 C 576.869 377.353, 547.993 399.972, 527 414.919 C 520.675 419.423, 514.451 423.871, 513.169 424.804 C 511.334 426.139, 509.291 431.504, 503.574 450 C 499.579 462.925, 495.705 475.863, 494.966 478.750 C 494.227 481.637, 493.334 484, 492.982 484 C 492.630 484, 489.678 475.622, 486.421 465.381 C 483.165 455.141, 480.050 446.588, 479.500 446.375 C 478.950 446.162, 472.253 449.329, 464.619 453.414 C 456.984 457.498, 445.959 462.985, 440.119 465.607 C 434.278 468.228, 428.922 470.883, 428.215 471.507 C 427.184 472.417, 427.743 474.894, 431.051 484.070 C 433.317 490.357, 436.446 499.325, 438.005 504 C 439.563 508.675, 445.429 525.775, 451.040 542 C 456.650 558.225, 461.974 573.868, 462.870 576.762 C 464.500 582.024, 464.500 582.024, 492.821 581.762 C 521.141 581.500, 521.141 581.500, 524.467 571.500 C 526.296 566, 531.932 549.350, 536.991 534.500 C 542.051 519.650, 552.852 487.700, 560.995 463.500 C 569.137 439.300, 580.120 406.790, 585.400 391.255 C 590.680 375.721, 595 362.783, 595 362.505 C 595 361.208, 593.069 362.486, 588 367.138 M 249.517 492.104 C 249.927 493.422, 254.740 507.775, 260.213 524 C 265.686 540.225, 272.279 559.800, 274.864 567.500 C 279.565 581.500, 279.565 581.500, 307.669 581.765 C 333.733 582.011, 335.827 581.903, 336.499 580.265 C 337.200 578.558, 342.470 563.133, 358.411 516.122 C 362.585 503.814, 366 493.079, 366 492.265 C 366 491.346, 365.419 491.009, 364.464 491.375 C 360.873 492.753, 338.364 495.971, 324.361 497.109 C 312.304 498.088, 306.196 498.083, 294.361 497.083 C 281.550 496.001, 258.673 492.443, 251.136 490.360 C 249.008 489.772, 248.846 489.946, 249.517 492.104 M 384 631 C 384 660, 384 660, 387.500 660 C 391 660, 391 660, 391 652.155 C 391 645.831, 391.354 643.990, 392.825 642.658 C 394.557 641.091, 394.976 641.487, 401.075 650.473 C 407.484 659.916, 407.511 659.940, 411.750 659.970 C 414.087 659.986, 416 659.765, 416 659.477 C 416 659.189, 412.400 654.025, 408 648 C 403.600 641.975, 400 636.759, 400 636.408 C 400 636.057, 403.453 632.222, 407.673 627.885 C 415.347 620, 415.347 620, 410.714 620 C 406.643 620, 405.659 620.455, 402.612 623.750 C 400.704 625.813, 397.791 629.368, 396.138 631.650 C 394.485 633.933, 392.652 636.097, 392.066 636.459 C 391.327 636.916, 391 631.736, 391 619.559 C 391 602, 391 602, 387.500 602 C 384 602, 384 602, 384 631 M 252 620.537 C 252 620.898, 253.997 627.788, 256.438 635.847 C 258.879 643.906, 261.413 652.661, 262.070 655.302 C 263.238 660.001, 263.341 660.098, 266.795 659.802 C 270.206 659.510, 270.408 659.261, 272.719 652.500 C 274.035 648.650, 276.162 641.675, 277.446 637 C 278.730 632.325, 280.017 629.175, 280.307 630 C 280.596 630.825, 282.588 637.800, 284.732 645.500 C 288.631 659.500, 288.631 659.500, 292.054 659.500 C 295.955 659.500, 295.361 660.765, 303.081 636 C 305.395 628.575, 307.497 621.938, 307.751 621.250 C 308.067 620.397, 307.078 620, 304.635 620 C 301.138 620, 301.017 620.133, 299.384 625.750 C 298.464 628.913, 296.488 636.450, 294.992 642.500 C 292.273 653.500, 292.273 653.500, 291.093 648 C 290.444 644.975, 288.439 637.550, 286.638 631.500 C 283.363 620.500, 283.363 620.500, 279.970 620.500 C 276.596 620.500, 276.565 620.543, 274.180 628.500 C 272.862 632.900, 270.842 640.325, 269.693 645 C 267.808 652.664, 267.526 653.205, 266.819 650.500 C 266.388 648.850, 264.565 641.425, 262.768 634 C 259.500 620.500, 259.500 620.500, 255.750 620.190 C 253.688 620.019, 252 620.175, 252 620.537 M 321.240 622.110 C 314.560 625.417, 310.979 632, 311.022 640.899 C 311.046 645.949, 313.635 652.539, 316.645 655.212 C 319.693 657.918, 325.565 660, 330.152 660 C 336.846 660, 342.591 656.626, 346.089 650.640 C 348.751 646.086, 349.057 644.747, 348.772 638.889 C 348.520 633.712, 347.859 631.386, 345.724 628.159 C 340.548 620.338, 330.057 617.746, 321.240 622.110 M 358 640 C 358 660, 358 660, 361.500 660 C 365 660, 365 660, 365 647.901 C 365 632.134, 366.872 627.975, 374.500 626.793 C 375.942 626.570, 376.587 625.580, 376.813 623.242 C 377.077 620.510, 376.794 620, 375.014 620 C 371.714 620, 367.197 622.755, 365.565 625.763 C 364.080 628.500, 364.080 628.500, 364.040 624.250 C 364.002 620.203, 363.856 620, 361 620 C 358 620, 358 620, 358 640 M 426.848 622.018 C 422.299 624.421, 419.539 628.850, 418.056 636.127 C 414.619 652.994, 427.566 663.859, 445.250 658.947 C 449.357 657.807, 449.440 657.691, 448.035 655.065 C 447.206 653.517, 446.103 653.331, 440.220 653.752 C 432.198 654.326, 427.909 652.658, 425.517 648.033 C 422.447 642.096, 422.639 642, 437.640 642 C 451.280 642, 451.280 642, 450.708 636.459 C 450.024 629.835, 447.584 625.310, 443.048 622.253 C 438.850 619.424, 431.947 619.324, 426.848 622.018 M 460 640 C 460 660, 460 660, 463.423 660 C 466.845 660, 466.845 660, 467.173 646.563 C 467.496 633.306, 467.539 633.085, 470.386 630.116 C 471.973 628.461, 474.448 626.970, 475.886 626.803 C 478.053 626.552, 478.555 625.920, 478.824 623.107 C 479.148 619.714, 479.148 619.714, 475.324 620.332 C 472.680 620.759, 470.659 621.961, 468.777 624.225 C 466.054 627.500, 466.054 627.500, 466.027 623.750 C 466.002 620.256, 465.795 620, 463 620 C 460 620, 460 620, 460 640 M 492.315 621.464 C 488.699 623.036, 486 627.485, 486 631.873 C 486 635.606, 490.555 640.371, 495.749 642.074 C 503.895 644.744, 506.247 648.657, 502.010 652.491 C 500.339 654.003, 498.896 654.198, 493.014 653.704 C 486.881 653.190, 485.885 653.346, 485.024 654.954 C 484.205 656.486, 484.604 657.059, 487.422 658.396 C 495.059 662.020, 507.147 659.287, 509.616 653.377 C 512.817 645.715, 510.555 641.410, 501.106 637.185 C 493.065 633.590, 491.308 631.433, 493.671 628.060 C 495.084 626.042, 495.927 625.846, 501.873 626.155 C 508.104 626.479, 508.519 626.366, 508.819 624.252 C 509.055 622.590, 508.451 621.742, 506.504 621.002 C 502.821 619.601, 496.093 619.820, 492.315 621.464 M 524.471 622.434 C 519.976 625.129, 517.400 629.616, 515.946 637.287 C 514.255 646.203, 517.825 654.340, 525.044 658.023 C 531.675 661.405, 548.018 660.096, 546.561 656.299 C 546.253 655.495, 546 654.498, 546 654.084 C 546 653.670, 542.471 653.535, 538.157 653.785 C 529.239 654.301, 526.851 653.444, 523.950 648.686 C 520.012 642.228, 520.411 642, 535.640 642 C 549.280 642, 549.280 642, 548.708 636.459 C 548.393 633.411, 547.294 629.475, 546.264 627.712 C 541.773 620.023, 532.314 617.732, 524.471 622.434 M 429.871 626.508 C 427.779 627.645, 424 634.090, 424 636.520 C 424 636.784, 428.500 637, 434 637 C 444.899 637, 444.934 636.977, 442.892 631.119 C 441.769 627.898, 437.625 624.966, 434.300 625.040 C 433.310 625.062, 431.317 625.723, 429.871 626.508 M 528.175 626.254 C 526.013 627.294, 522 633.602, 522 635.960 C 522 636.611, 525.745 637, 532 637 C 543.099 637, 543.236 636.895, 540.548 630.462 C 538.490 625.534, 533.323 623.777, 528.175 626.254 M 323.871 627.508 C 320.951 629.095, 318 635.401, 318 640.052 C 318 647.844, 323.493 654, 330.446 654 C 335.247 654, 338.425 651.620, 340.610 646.390 C 343.172 640.259, 341.517 631.339, 337.186 627.932 C 334.257 625.628, 327.716 625.420, 323.871 627.508" stroke="none" fill="#ffffff" fill-rule="evenodd"/><path d="M 663 215.553 C 649.525 218.501, 624.399 223.733, 607.165 227.180 C 581.286 232.357, 575.653 233.779, 574.812 235.351 C 573.932 236.996, 575.640 239.033, 587.407 250.377 C 594.894 257.595, 601.015 264.049, 601.010 264.720 C 600.999 266.015, 595.079 273.523, 575.557 296.999 C 563.496 311.503, 519.133 356.880, 505 369.169 C 500.875 372.756, 491.200 380.571, 483.500 386.536 C 437.342 422.295, 393.051 444.764, 346.743 455.915 C 315.270 463.494, 274.273 464.091, 243.631 457.417 C 221.423 452.579, 189.712 439.837, 170.500 428.030 C 155.408 418.755, 156.227 419.154, 158.500 422.191 C 160.641 425.052, 178.008 439.402, 188.888 447.300 C 227.402 475.259, 276.093 488.846, 324.457 485.130 C 378.561 480.973, 430.432 461.931, 493 423.257 C 531.705 399.334, 578.716 361.685, 619.126 322.250 C 628.847 312.762, 637.056 305, 637.368 305 C 637.889 305, 641.734 308.258, 661.969 325.843 C 667.235 330.420, 669.487 331.830, 670.057 330.908 C 670.745 329.795, 671.820 323.063, 672.597 315 C 672.729 313.625, 672.914 312.500, 673.007 312.500 C 673.206 312.500, 675.211 301.866, 680.832 271 C 683.086 258.625, 686.246 241.525, 687.854 233 C 692.008 210.977, 692.263 209.223, 691.052 211 C 690.364 212.010, 690.026 212.092, 690.015 211.250 C 689.995 209.591, 690.969 209.435, 663 215.553 M 192.250 291.746 C 198.162 291.923, 207.838 291.923, 213.750 291.746 C 219.662 291.569, 214.825 291.425, 203 291.425 C 191.175 291.425, 186.338 291.569, 192.250 291.746 M 231.728 291.722 C 233.503 291.943, 236.653 291.946, 238.728 291.730 C 240.802 291.513, 239.350 291.333, 235.500 291.328 C 231.650 291.324, 229.952 291.501, 231.728 291.722 M 284.750 450.723 C 286.538 450.945, 289.462 450.945, 291.250 450.723 C 293.038 450.502, 291.575 450.320, 288 450.320 C 284.425 450.320, 282.962 450.502, 284.750 450.723" stroke="none" fill="#f29200" fill-rule="evenodd"/><path d="M 372.105 295.234 C 370.895 299.462, 323.589 443.303, 322.327 446.591 C 321.743 448.112, 322.213 448.228, 326.585 447.641 C 340.088 445.826, 362.649 439.604, 380.198 432.855 C 388.884 429.515, 388.229 430.539, 395.138 409.500 C 398.486 399.308, 400.074 395.752, 400.918 396.561 C 401.238 396.868, 403.080 401.924, 405.012 407.798 C 407.211 414.485, 409.087 418.586, 410.031 418.767 C 411.784 419.105, 431.667 407.806, 448.336 397 C 456.824 391.498, 459.897 388.967, 459.873 387.500 C 459.855 386.400, 452.788 364.350, 444.170 338.500 C 428.500 291.500, 428.500 291.500, 400.913 291.234 C 373.326 290.969, 373.326 290.969, 372.105 295.234 M 183.407 296.237 C 184.132 298.582, 191.133 319.400, 198.965 342.500 C 206.796 365.600, 217.582 397.546, 222.935 413.492 C 232.666 442.484, 232.666 442.484, 242.083 444.732 C 255.455 447.924, 270.520 449.820, 285 450.132 C 297.500 450.402, 297.500 450.402, 297.296 447.587 C 297.184 446.039, 294.777 437.286, 291.948 428.136 C 282.329 397.030, 279.105 386.524, 271.960 363 C 264.136 337.243, 258.572 319.132, 253.526 303 C 250.242 292.500, 250.242 292.500, 216.165 292.237 C 182.088 291.974, 182.088 291.974, 183.407 296.237 M 582.387 372.353 C 565.010 386.909, 542.461 404.342, 528 414.398 C 521.125 419.180, 514.477 423.858, 513.227 424.796 C 511.446 426.131, 509.112 432.557, 502.436 454.500 C 497.752 469.900, 493.673 483.175, 493.373 484 C 493.072 484.825, 489.980 476.802, 486.500 466.170 C 483.021 455.539, 479.952 446.619, 479.681 446.347 C 479.409 446.076, 472.806 449.262, 465.006 453.427 C 457.207 457.592, 450.696 461, 450.538 461 C 450.380 461, 445.041 463.448, 438.674 466.439 C 427.097 471.879, 427.097 471.879, 431.197 483.689 C 433.451 490.185, 441.936 514.850, 450.052 538.500 C 464.807 581.500, 464.807 581.500, 492.087 581.766 C 509.213 581.934, 519.737 581.663, 520.362 581.038 C 521.364 580.036, 525.629 567.657, 555.513 479 C 564.504 452.325, 577.056 415.226, 583.405 396.558 C 589.754 377.890, 594.848 362.524, 594.724 362.411 C 594.601 362.299, 589.049 366.773, 582.387 372.353 M 250.438 494.250 C 251.588 497.890, 275.494 568.818, 277.486 574.500 C 280.393 582.791, 277.173 582, 308.035 582 C 335.828 582, 335.828 582, 342.823 561.250 C 346.670 549.837, 353.459 530.008, 357.909 517.184 C 362.359 504.360, 366 493.265, 366 492.528 C 366 491.508, 365.223 491.390, 362.750 492.036 C 357.195 493.488, 340.066 495.924, 327 497.121 C 306.716 498.978, 278.938 496.910, 258.288 492.006 C 253.643 490.903, 249.674 490, 249.469 490 C 249.264 490, 249.700 491.913, 250.438 494.250 M 384 631 C 384 660, 384 660, 387.500 660 C 391 660, 391 660, 391 652.155 C 391 645.727, 391.342 644, 392.894 642.596 C 394.716 640.947, 395.003 641.195, 400.517 649.191 C 403.668 653.761, 406.464 658.063, 406.730 658.750 C 407.199 659.962, 416 660.618, 416 659.441 C 416 659.134, 414.729 657.222, 413.175 655.191 C 403.576 642.647, 400 637.605, 400.003 636.618 C 400.004 636.003, 403.154 632.278, 407.003 628.340 C 410.851 624.402, 414 620.915, 414 620.590 C 414 620.266, 412.238 620, 410.085 620 C 406.669 620, 405.635 620.606, 401.979 624.750 C 399.674 627.362, 396.598 631.178, 395.144 633.229 C 393.690 635.279, 392.163 636.967, 391.750 636.979 C 391.337 636.990, 391 629.125, 391 619.500 C 391 602, 391 602, 387.500 602 C 384 602, 384 602, 384 631 M 252.758 620.575 C 252.442 620.892, 252.556 622.354, 253.013 623.825 C 253.469 625.296, 256.016 633.925, 258.672 643 C 263.500 659.500, 263.500 659.500, 266.608 659.803 C 269.675 660.101, 269.759 659.987, 272.836 651.303 C 274.552 646.461, 276.695 639.462, 277.599 635.750 C 278.503 632.038, 279.599 629, 280.034 629 C 280.468 629, 281.140 630.913, 281.526 633.250 C 281.912 635.587, 282.815 639.300, 283.533 641.500 C 284.250 643.700, 285.801 648.789, 286.978 652.809 C 289.098 660.045, 289.152 660.115, 292.304 659.809 C 295.145 659.533, 295.671 658.961, 297.183 654.500 C 299.050 648.993, 306.598 624.384, 307.152 622 C 307.395 620.950, 306.542 620.407, 304.308 620.191 C 301.370 619.907, 301.033 620.186, 300.075 623.691 C 299.502 625.786, 298.161 630.650, 297.095 634.500 C 296.029 638.350, 294.632 644.123, 293.991 647.329 C 293.350 650.535, 292.680 653.010, 292.502 652.829 C 292.324 652.648, 291.431 649.575, 290.518 646 C 289.606 642.425, 287.506 635.112, 285.852 629.750 C 282.959 620.370, 282.735 620, 279.965 620 C 277.194 620, 276.974 620.366, 274.097 629.750 C 272.454 635.112, 270.351 642.554, 269.424 646.286 C 268.497 650.018, 267.597 652.930, 267.423 652.757 C 267.250 652.583, 265.950 647.505, 264.534 641.471 C 259.755 621.106, 259.323 620, 256.139 620 C 254.596 620, 253.074 620.259, 252.758 620.575 M 323.277 621.112 C 318.368 622.530, 313.369 628.292, 311.963 634.153 C 308.973 646.619, 315.095 657.658, 326.023 659.504 C 339.564 661.792, 350.153 651.462, 348.700 637.384 C 347.353 624.328, 336.401 617.319, 323.277 621.112 M 358 640 C 358 660, 358 660, 361.500 660 C 365 660, 365 660, 365.004 647.250 C 365.008 632.842, 366.446 628.601, 371.719 627.443 C 373.249 627.108, 375.063 626.660, 375.750 626.448 C 377.475 625.916, 377.383 620, 375.649 620 C 372.425 620, 368.334 622.291, 366.250 625.262 C 364 628.472, 364 628.472, 364 624.236 C 364 620.196, 363.861 620, 361 620 C 358 620, 358 620, 358 640 M 428.450 621.351 C 421.312 624.590, 417.503 632.854, 418.188 643.614 C 418.914 655.015, 426.611 660.886, 439.281 659.703 C 447.726 658.914, 449.056 658.325, 448.118 655.790 C 447.442 653.962, 446.450 653.734, 438.703 653.623 C 430.886 653.512, 429.801 653.257, 427.546 651 C 426.172 649.625, 424.756 647.038, 424.399 645.250 C 423.750 642, 423.750 642, 437.502 642 C 451.254 642, 451.254 642, 450.785 637.115 C 450.224 631.275, 447.337 625.341, 443.756 622.667 C 440.453 620.201, 432.493 619.517, 428.450 621.351 M 460 640 C 460 660, 460 660, 463.500 660 C 467 660, 467 660, 467 647.450 C 467 631.427, 468.177 628.897, 476.750 626.495 C 478.429 626.025, 479 625.120, 479 622.933 C 479 621.052, 478.485 620, 477.565 620 C 474.755 620, 470.884 622.022, 468.492 624.740 C 466.063 627.500, 466.063 627.500, 466.032 623.750 C 466.002 620.257, 465.794 620, 463 620 C 460 620, 460 620, 460 640 M 492.449 621.551 C 488.889 623.308, 486 627.715, 486 631.389 C 486 635.110, 490.782 639.913, 496.960 642.396 C 503.065 644.850, 504.566 646.610, 503.653 650.245 C 502.739 653.889, 498.275 655.252, 491.803 653.864 C 486.832 652.798, 485.070 653.431, 485.015 656.301 C 484.988 657.708, 491.795 660, 496 660 C 504.667 660, 510.455 655.159, 510.455 647.909 C 510.455 643.049, 508.063 640.432, 500.500 637.017 C 493.609 633.905, 491.576 631.912, 492.458 629.132 C 493.337 626.364, 497.834 625.053, 503.095 626.031 C 507.870 626.918, 509.383 626.225, 508.839 623.400 C 508.199 620.082, 497.803 618.909, 492.449 621.551 M 526.500 621.356 C 519.861 624.430, 516 631.563, 516 640.756 C 516 652.898, 523.146 660.113, 534.962 659.900 C 543.230 659.751, 545.445 658.892, 545.819 655.688 C 546.133 652.995, 546.073 652.965, 541.819 653.637 C 537.113 654.382, 536.998 654.388, 532.266 654.158 C 528.109 653.955, 523.192 649.528, 522.373 645.250 C 521.750 642, 521.750 642, 535.514 642 C 549.279 642, 549.279 642, 548.671 636.873 C 547.944 630.728, 545.312 625.322, 541.756 622.667 C 538.449 620.198, 530.481 619.513, 526.500 621.356 M 326.094 626.331 C 321.410 627.939, 319 631.604, 318.324 638.148 C 317.324 647.836, 321.829 654.068, 329.914 654.179 C 334.939 654.249, 338.193 652.220, 340.351 647.674 C 346.099 635.559, 337.353 622.465, 326.094 626.331 M 429.881 626.503 C 427.458 627.820, 424 633.346, 424 635.901 C 424 636.627, 427.436 637, 434.131 637 C 444.262 637, 444.262 637, 443.665 633.250 C 442.565 626.345, 436.045 623.153, 429.881 626.503 M 527.881 626.503 C 525.458 627.820, 522 633.346, 522 635.901 C 522 636.627, 525.436 637, 532.131 637 C 542.262 637, 542.262 637, 541.665 633.250 C 540.565 626.345, 534.045 623.153, 527.881 626.503" stroke="none" fill="#30302e" fill-rule="evenodd"/></svg>